# xmcd
#
# Track frame offsets: 
#        150
#        14199
#        27189
#        41704
#        56954
#        73723
#        91938
#        105774
#        123882
#        137637
#        152078
#
# Disc length: 2247 seconds
#
# Revision: 0
# Processed by: cddbd v1.5.2PL0 Copyright (c) Steve Scherf et al.
# Submitted via: ExactAudioCopy v1.0b3
#
DISCID=9008c50b
DTITLE=Wicked Wildcats - The Cats Are Back In Town!
DYEAR=2013
DGENRE=Country
TTITLE0=The Cats Are Back In Town
TTITLE1=Whistling Tony
TTITLE2=Scottish Roots
TTITLE3=Kiss Your Boyfriend
TTITLE4=Hold Your Head Up
TTITLE5=Free As A Bird
TTITLE6=Conditional Song
TTITLE7=Big Fat Mama
TTITLE8=Down To The Bar
TTITLE9=Cash - Bucks - Money
TTITLE10=Clear Up My Life
EXTD=
EXTT0=
EXTT1=
EXTT2=
EXTT3=
EXTT4=
EXTT5=
EXTT6=
EXTT7=
EXTT8=
EXTT9=
EXTT10=
PLAYORDER=
